HIERARCHY
ROOT Hips
{
 OFFSET 0.000000 0.000000 0.000000
 CHANNELS 6 Xposition Yposition Zposition Yrotation Xrotation Zrotation
 JOINT Chest
 {
  OFFSET 0.000000 9.585900 0.002600
  CHANNELS 3 Yrotation Xrotation Zrotation
  JOINT Chest2
  {
   OFFSET 0.000000 9.601200 -0.005300
   CHANNELS 3 Yrotation Xrotation Zrotation
   JOINT Chest3
   {
    OFFSET 0.000000 9.561800 0.000000
    CHANNELS 3 Yrotation Xrotation Zrotation
    JOINT Chest4
    {
     OFFSET 0.000000 9.552100 0.000000
     CHANNELS 3 Yrotation Xrotation Zrotation
     JOINT Neck
     {
      OFFSET 0.000000 14.453000 0.000000
      CHANNELS 3 Yrotation Xrotation Zrotation
      JOINT Head
      {
       OFFSET 0.000000 8.936500 -0.011300
       CHANNELS 3 Yrotation Xrotation Zrotation
       End Site
       {
        OFFSET 0.000000 17.073600 -0.006000
       }
      }
     }
     JOINT RightCollar
     {
      OFFSET -2.921100 9.558500 0.000000
      CHANNELS 3 Yrotation Xrotation Zrotation
      JOINT RightShoulder
      {
       OFFSET -13.519700 0.000000 0.000000
       CHANNELS 3 Yrotation Xrotation Zrotation
       JOINT RightElbow
       {
        OFFSET 0.000000 -29.696600 0.000000
        CHANNELS 3 Yrotation Xrotation Zrotation
        JOINT RightWrist
        {
         OFFSET 0.000000 -24.004700 0.000000
         CHANNELS 3 Yrotation Xrotation Zrotation
         End Site
         {
          OFFSET 0.000000 -17.728500 0.000000
         }
        }
       }
      }
     }
     JOINT LeftCollar
     {
      OFFSET 2.921100 9.558500 0.000000
      CHANNELS 3 Yrotation Xrotation Zrotation
      JOINT LeftShoulder
      {
       OFFSET 13.519700 0.000000 0.000000
       CHANNELS 3 Yrotation Xrotation Zrotation
       JOINT LeftElbow
       {
        OFFSET 0.000000 -29.696600 0.000000
        CHANNELS 3 Yrotation Xrotation Zrotation
        JOINT LeftWrist
        {
         OFFSET 0.000000 -24.004700 0.000000
         CHANNELS 3 Yrotation Xrotation Zrotation
         End Site
         {
          OFFSET 0.000000 -17.728500 0.000000
         }
        }
       }
      }
     }
    }
   }
  }
 }
 JOINT RightHip
 {
  OFFSET -7.771700 -0.012900 -0.001300
  CHANNELS 3 Yrotation Xrotation Zrotation
  JOINT RightKnee
  {
   OFFSET 0.000000 -40.869800 0.001200
   CHANNELS 3 Yrotation Xrotation Zrotation
   JOINT RightAnkle
   {
    OFFSET 0.000000 -39.717900 0.002100
    CHANNELS 3 Yrotation Xrotation Zrotation
    JOINT RightToe
    {
     OFFSET 0.000000 -4.965400 11.033500
     CHANNELS 3 Yrotation Xrotation Zrotation
     End Site
     {
      OFFSET 0.000000 -1.423100 5.872300
     }
    }
   }
  }
 }
 JOINT LeftHip
 {
  OFFSET 7.771700 -0.012900 -0.001300
  CHANNELS 3 Yrotation Xrotation Zrotation
  JOINT LeftKnee
  {
   OFFSET 0.000000 -40.869800 0.001200
   CHANNELS 3 Yrotation Xrotation Zrotation
   JOINT LeftAnkle
   {
    OFFSET 0.000000 -39.717900 0.002100
    CHANNELS 3 Yrotation Xrotation Zrotation
    JOINT LeftToe
    {
     OFFSET 0.000000 -4.965400 11.033500
     CHANNELS 3 Yrotation Xrotation Zrotation
     End Site
     {
      OFFSET 0.000000 -1.423100 5.872300
     }
    }
   }
  }
 }
}
MOTION
Frames: 12
Frame Time: 0.008333
0.000000 85.388000 0.000000 0.000000 -5.767877 0.000000 0.000000 11.653817 0.000000 0.000000 -5.885947 0.000000 0.000000 -0.000000 0.000000 0.000000 -0.000000 0.000000 0.000000 12.528835 0.000000 0.000000 0.711642 0.000000 0.000000 -0.000000 0.000000 0.000000 0.000000 -90.000000 0.000000 -2.309062 0.000000 0.000000 2.309062 0.000000 0.000000 -0.000000 0.000000 0.000000 -0.000000 90.000000 0.000000 -2.309062 0.000000 0.000000 2.309062 0.000000 0.000000 8.520406 0.000000 0.000000 1.905762 0.000000 -0.000000 -4.658285 0.000000 0.000000 -0.000000 0.000000 0.000000 8.520406 0.000000 0.000000 1.905762 0.000000 -0.000000 -4.658285 0.000000 0.000000 -0.000000 0.000000
-20.182060 57.767407 71.637197 172.459607 -32.693240 -1.172353 4.484503 21.403166 7.745687 0.417292 3.089448 0.741408 0.705766 4.967792 1.193221 3.195434 18.369870 4.925417 11.843282 17.612483 -5.747415 23.574632 -0.952621 -14.157118 13.075255 -2.390680 -6.784565 5.832486 -10.478004 -17.082141 -79.744591 -83.394077 116.598835 15.406656 -7.040776 -35.473009 -6.932230 -7.888164 0.664375 5.171152 5.365877 -4.862968 -8.593367 -86.102387 -25.601408 -6.435482 -0.508347 16.360983 12.090381 -39.339611 -3.411900 -5.138090 67.321722 -4.702807 4.539855 9.110069 8.145054 -0.091242 0.179086 -0.040206 -3.850384 -44.756095 5.194927 28.389502 57.893824 25.820600 -12.941034 39.545415 4.445958 0.401445 -17.584525 -7.155754
-20.182866 57.760317 71.645427 172.475871 -32.701085 -1.207392 4.496583 21.353735 7.748907 0.423200 3.072731 0.731898 0.706444 4.977198 1.198921 3.194561 18.358735 4.921856 11.750102 17.601572 -5.717302 23.374898 -1.015504 -14.065080 13.011259 -2.426074 -6.720215 5.869702 -10.461852 -16.915989 -80.139903 -83.488027 116.854888 15.416133 -7.044251 -35.442069 -6.923586 -7.878802 0.579147 5.193577 5.287888 -4.764270 -8.437313 -86.212832 -25.738390 -6.444511 -0.507115 16.314392 12.063515 -39.337345 -3.380372 -5.157282 67.309373 -4.723846 4.549863 9.118681 8.155785 -0.092174 0.179403 -0.040540 -3.908960 -44.766087 5.244605 28.409067 57.899497 25.833627 -12.942489 39.591770 4.446987 0.398026 -17.605840 -7.158591
-20.186555 57.753370 71.652587 172.474875 -32.726843 -1.218428 4.525323 21.320147 7.736906 0.426549 3.070155 0.730149 0.711823 4.973166 1.196188 3.232953 18.304069 4.878748 11.622607 17.611780 -5.618671 23.142139 -1.099983 -13.953859 12.870104 -2.453188 -6.584466 5.930194 -10.452921 -16.782385 -80.906956 -83.602983 117.476016 15.451795 -7.055200 -35.401726 -6.965071 -7.832768 0.507342 5.232205 5.207154 -4.629350 -9.080292 -86.384582 -25.075007 -6.456607 -0.503405 16.242324 12.087550 -39.316871 -3.380851 -5.172201 67.302574 -4.725599 4.549463 9.126720 8.171331 -0.093709 0.179910 -0.041512 -3.927226 -44.750839 5.266749 28.406270 57.900839 25.832316 -12.980320 39.622735 4.435517 0.430624 -17.621902 -7.178481
-20.189382 57.751039 71.652550 172.501260 -32.814655 -1.245726 4.525298 21.377072 7.744409 0.428463 3.068801 0.729229 0.737075 4.937434 1.169678 3.269417 18.279066 4.858409 11.475876 17.591657 -5.545274 22.872753 -1.200200 -13.824615 12.692324 -2.520476 -6.463656 6.022482 -10.455300 -16.681332 -82.170513 -83.761207 118.570051 15.514977 -7.094537 -35.356049 -6.999865 -7.829598 0.381107 5.283526 5.121138 -4.457506 -10.981203 -86.634030 -23.135516 -6.474787 -0.514285 16.151948 12.111905 -39.225523 -3.391598 -5.206367 67.298673 -4.706995 4.549137 9.126078 8.175329 -0.093561 0.179046 -0.042342 -3.958829 -44.667322 5.280774 28.407269 57.902586 25.835535 -12.994804 39.633840 4.425761 0.426430 -17.624563 -7.176684
-20.193902 57.744305 71.659334 172.498242 -32.862275 -1.253157 4.576192 21.342140 7.719713 0.434827 3.064485 0.726565 0.710163 4.981850 1.205850 3.319753 18.235705 4.817605 11.311423 17.557935 -5.487643 22.561284 -1.310704 -13.679552 12.467470 -2.615880 -6.343844 6.151333 -10.477847 -16.607809 -84.055725 -83.982576 120.250025 15.597294 -7.188657 -35.324409 -7.019410 -7.849995 0.209144 5.333407 5.014424 -4.250299 -15.150134 -86.975377 -18.894230 -6.493207 -0.573266 16.083616 12.116700 -39.181807 -3.379720 -5.202993 67.290431 -4.704177 4.551399 9.126624 8.189876 -0.094680 0.184819 -0.042845 -3.964281 -44.625088 5.291419 28.407001 57.903695 25.838065 -13.006688 39.627127 4.416973 0.416555 -17.604854 -7.172701
-20.198764 57.734854 71.670808 172.493412 -32.883864 -1.260963 4.639982 21.276845 7.692803 0.442664 3.059860 0.723312 0.722850 4.974643 1.200969 3.351387 18.240121 4.825372 11.122255 17.523824 -5.425814 22.203205 -1.427576 -13.519388 12.174832 -2.731817 -6.203029 6.318874 -10.524360 -16.552073 -86.711539 -84.269430 122.661710 15.694867 -7.370809 -35.356333 -7.025006 -7.873849 0.008673 5.373797 4.864092 -4.000942 -23.935907 -87.391434 -10.003103 -6.489423 -0.741282 16.119813 12.125065 -39.168177 -3.373713 -5.197122 67.280311 -4.698444 4.550231 9.137474 8.202982 -0.093739 0.183018 -0.042855 -3.971039 -44.617976 5.305081 28.399631 57.910614 25.831793 -12.992377 39.644895 4.441653 0.407650 -17.609325 -7.188421
-20.201197 57.728195 71.679059 172.505455 -32.936528 -1.288821 4.697722 21.253113 7.685368 0.450436 3.055841 0.719948 0.750361 4.950922 1.180677 3.388993 18.243373 4.832422 10.906310 17.492601 -5.358463 21.793731 -1.545319 -13.340197 11.811977 -2.867256 -6.034816 6.517811 -10.591482 -16.506553 -90.382598 -84.614918 126.042406 15.808049 -7.660464 -35.520917 -7.013267 -7.899007 -0.220444 5.410767 4.650163 -3.694524 -41.979286 -87.764594 8.167214 -6.446271 -1.085254 16.354158 12.110863 -39.119339 -3.350401 -5.194032 67.267375 -4.684202 4.549548 9.144830 8.208539 -0.094665 0.184823 -0.042260 -3.983059 -44.581445 5.315999 28.393707 57.912264 25.845559 -12.998082 39.682544 4.465545 0.417291 -17.632264 -7.220882
-20.204774 57.725169 71.682500 172.540916 -33.027072 -1.317503 4.748441 21.260037 7.664999 0.459725 3.050991 0.715815 0.765344 4.943442 1.174233 3.445254 18.227821 4.817904 10.660384 17.468150 -5.282734 21.325354 -1.657663 -13.134946 11.380259 -3.013356 -5.831231 6.729659 -10.676656 -16.464196 -95.591285 -85.018194 130.892205 15.932012 -8.062521 -35.875798 -6.991784 -7.921877 -0.476754 5.451649 4.359637 -3.317714 -72.234098 -87.757164 38.576973 -6.386235 -1.606353 16.820501 12.076648 -39.025400 -3.325351 -5.198407 67.258526 -4.684868 4.547995 9.141334 8.215534 -0.092727 0.185700 -0.041251 -4.006273 -44.493712 5.313240 28.389632 57.902136 25.854245 -13.017591 39.697458 4.451055 0.425945 -17.633861 -7.223040
-20.209269 57.721033 71.688742 172.576840 -33.101974 -1.341752 4.814406 21.241259 7.632058 0.471395 3.044634 0.710627 0.784181 4.933548 1.166117 3.516022 18.207255 4.799781 10.380579 17.452644 -5.194266 20.789235 -1.762021 -12.894134 10.877656 -3.155873 -5.586977 6.941296 -10.778646 -16.413812 -103.278764 -85.455246 138.124133 16.076527 -8.573084 -36.433666 -6.971029 -7.930809 -0.748054 5.490225 3.984631 -2.879733 -101.798966 -86.970930 68.363836 -6.382715 -2.204594 17.413931 12.046383 -38.946040 -3.313801 -5.194905 67.247500 -4.675384 4.551340 9.134132 8.218239 -0.095543 0.190081 -0.038599 -4.023525 -44.420990 5.303112 28.386315 57.884709 25.863723 -13.042193 39.715312 4.434636 0.434619 -17.634938 -7.223547
-20.217522 57.715095 71.698427 172.617824 -33.153052 -1.347915 4.890459 21.185919 7.566642 0.486329 3.035630 0.703868 0.808338 4.919565 1.155623 3.607326 18.178331 4.776565 10.064355 17.445757 -5.087038 20.178874 -1.860153 -12.605939 10.300784 -3.280936 -5.291840 7.147950 -10.889760 -16.345676 -114.394803 -85.819613 148.664724 16.265660 -9.180150 -37.106171 -6.955145 -7.895216 -1.004881 5.506343 3.519054 -2.432536 -119.577864 -85.477671 86.478471 -6.486941 -2.752888 17.924471 12.019426 -38.888443 -3.326850 -5.182120 67.238976 -4.669744 4.546043 9.117372 8.220376 -0.092201 0.205119 -0.033584 -3.964244 -44.375587 5.213993 28.355163 57.843482 25.886066 -13.062798 39.768906 4.446797 0.436460 -17.655899 -7.241547
-20.222340 57.711617 71.706109 172.644570 -33.225446 -1.364325 5.010406 21.127078 7.516198 0.504193 3.022689 0.695358 0.837289 4.899493 1.142531 3.718173 18.137759 4.747946 9.712365 17.447985 -4.958724 19.494693 -1.950467 -12.265911 9.657496 -3.366050 -4.945398 7.338726 -10.998941 -16.248985 -128.497482 -85.934557 162.073524 16.529523 -9.829577 -37.742546 -6.942669 -7.770576 -1.221591 5.505380 2.959270 -2.048659 -128.889137 -83.599083 96.253299 -6.640931 -3.199457 18.233422 11.985639 -38.811278 -3.306255 -5.184752 67.223903 -4.681530 4.547565 9.110682 8.226340 -0.091752 0.211971 -0.031254 -3.961930 -44.304118 5.193694 28.344722 57.826248 25.890459 -13.069849 39.778127 4.448221 0.436806 -17.649210 -7.246127
